<mxfile host="app.diagrams.net" agent="Mozilla/5.0 (Macintosh; Intel Mac OS X 10_15_7) AppleWebKit/537.36 (KHTML, like Gecko) Chrome/134.0.0.0 Safari/537.36" version="26.2.8">
  <diagram name="第 1 页" id="qK4uVdp-ywqS_e5S5D6z">
    <mxGraphModel dx="1300" dy="779" grid="1" gridSize="10" guides="1" tooltips="1" connect="1" arrows="1" fold="1" page="1" pageScale="1" pageWidth="3300" pageHeight="4681" math="0" shadow="0">
      <root>
        <mxCell id="0" />
        <mxCell id="1" parent="0" />
        <mxCell id="fixqP4ct7N5aV7qAm0VZ-5" style="edgeStyle=orthogonalEdgeStyle;rounded=0;orthogonalLoop=1;jettySize=auto;html=1;exitX=0.5;exitY=0.5;exitDx=0;exitDy=0;exitPerimeter=0;entryX=0;entryY=0.5;entryDx=0;entryDy=0;" parent="1" source="fixqP4ct7N5aV7qAm0VZ-1" target="fixqP4ct7N5aV7qAm0VZ-4" edge="1">
          <mxGeometry relative="1" as="geometry" />
        </mxCell>
        <mxCell id="fixqP4ct7N5aV7qAm0VZ-1" value="Actor" style="shape=umlActor;verticalLabelPosition=bottom;verticalAlign=top;html=1;outlineConnect=0;" parent="1" vertex="1">
          <mxGeometry x="310" y="310" width="30" height="60" as="geometry" />
        </mxCell>
        <mxCell id="fixqP4ct7N5aV7qAm0VZ-9" style="edgeStyle=orthogonalEdgeStyle;rounded=0;orthogonalLoop=1;jettySize=auto;html=1;exitX=1;exitY=0.5;exitDx=0;exitDy=0;" parent="1" source="fixqP4ct7N5aV7qAm0VZ-4" target="fixqP4ct7N5aV7qAm0VZ-7" edge="1">
          <mxGeometry relative="1" as="geometry" />
        </mxCell>
        <mxCell id="fixqP4ct7N5aV7qAm0VZ-4" value="noti-sharing service" style="rounded=1;whiteSpace=wrap;html=1;fillColor=#dae8fc;strokeColor=#6c8ebf;" parent="1" vertex="1">
          <mxGeometry x="460" y="310" width="120" height="60" as="geometry" />
        </mxCell>
        <mxCell id="fixqP4ct7N5aV7qAm0VZ-6" value="user_id, item_id,&lt;br&gt;&amp;nbsp;language, region" style="text;html=1;align=center;verticalAlign=middle;resizable=0;points=[];autosize=1;strokeColor=none;fillColor=none;" parent="1" vertex="1">
          <mxGeometry x="340" y="303" width="120" height="40" as="geometry" />
        </mxCell>
        <mxCell id="fixqP4ct7N5aV7qAm0VZ-10" style="edgeStyle=orthogonalEdgeStyle;rounded=0;orthogonalLoop=1;jettySize=auto;html=1;exitX=1;exitY=0.5;exitDx=0;exitDy=0;entryX=0;entryY=0.5;entryDx=0;entryDy=0;" parent="1" source="fixqP4ct7N5aV7qAm0VZ-7" target="fixqP4ct7N5aV7qAm0VZ-8" edge="1">
          <mxGeometry relative="1" as="geometry" />
        </mxCell>
        <mxCell id="fixqP4ct7N5aV7qAm0VZ-11" style="edgeStyle=orthogonalEdgeStyle;rounded=0;orthogonalLoop=1;jettySize=auto;html=1;exitX=0.5;exitY=1;exitDx=0;exitDy=0;entryX=0.5;entryY=1;entryDx=0;entryDy=0;" parent="1" source="fixqP4ct7N5aV7qAm0VZ-7" target="fixqP4ct7N5aV7qAm0VZ-8" edge="1">
          <mxGeometry relative="1" as="geometry" />
        </mxCell>
        <mxCell id="fixqP4ct7N5aV7qAm0VZ-7" value="region in whitelist" style="rhombus;whiteSpace=wrap;html=1;fillColor=#f8cecc;strokeColor=#b85450;" parent="1" vertex="1">
          <mxGeometry x="670" y="300" width="80" height="80" as="geometry" />
        </mxCell>
        <mxCell id="fixqP4ct7N5aV7qAm0VZ-8" value="affiliate service" style="rounded=1;whiteSpace=wrap;html=1;fillColor=#dae8fc;strokeColor=#6c8ebf;" parent="1" vertex="1">
          <mxGeometry x="930" y="310" width="120" height="60" as="geometry" />
        </mxCell>
        <mxCell id="fixqP4ct7N5aV7qAm0VZ-12" value="no" style="text;html=1;align=center;verticalAlign=middle;resizable=0;points=[];autosize=1;strokeColor=none;fillColor=none;" parent="1" vertex="1">
          <mxGeometry x="740" y="318" width="40" height="30" as="geometry" />
        </mxCell>
        <mxCell id="fixqP4ct7N5aV7qAm0VZ-14" value="yes" style="text;html=1;align=center;verticalAlign=middle;resizable=0;points=[];autosize=1;strokeColor=none;fillColor=none;" parent="1" vertex="1">
          <mxGeometry x="700" y="370" width="40" height="30" as="geometry" />
        </mxCell>
        <mxCell id="fixqP4ct7N5aV7qAm0VZ-15" value="call get_product_offer api&lt;br&gt;to get commission_info" style="text;html=1;align=center;verticalAlign=middle;resizable=0;points=[];autosize=1;strokeColor=none;fillColor=none;" parent="1" vertex="1">
          <mxGeometry x="760" y="300" width="160" height="40" as="geometry" />
        </mxCell>
        <mxCell id="fixqP4ct7N5aV7qAm0VZ-16" value="call get_affiliate_sharing_info api&lt;br&gt;to get commission_banner" style="text;html=1;align=center;verticalAlign=middle;resizable=0;points=[];autosize=1;strokeColor=none;fillColor=none;" parent="1" vertex="1">
          <mxGeometry x="740" y="365" width="200" height="40" as="geometry" />
        </mxCell>
        <mxCell id="fixqP4ct7N5aV7qAm0VZ-23" value="response" style="swimlane;fontStyle=0;childLayout=stackLayout;horizontal=1;startSize=30;horizontalStack=0;resizeParent=1;resizeParentMax=0;resizeLast=0;collapsible=1;marginBottom=0;whiteSpace=wrap;html=1;" parent="1" vertex="1">
          <mxGeometry x="320" y="190" width="190" height="90" as="geometry" />
        </mxCell>
        <mxCell id="fixqP4ct7N5aV7qAm0VZ-24" value="commission_info (old)" style="text;strokeColor=none;fillColor=none;align=left;verticalAlign=middle;spacingLeft=4;spacingRight=4;overflow=hidden;points=[[0,0.5],[1,0.5]];portConstraint=eastwest;rotatable=0;whiteSpace=wrap;html=1;" parent="fixqP4ct7N5aV7qAm0VZ-23" vertex="1">
          <mxGeometry y="30" width="190" height="30" as="geometry" />
        </mxCell>
        <mxCell id="fixqP4ct7N5aV7qAm0VZ-25" value="commission_banner (new)" style="text;strokeColor=none;fillColor=none;align=left;verticalAlign=middle;spacingLeft=4;spacingRight=4;overflow=hidden;points=[[0,0.5],[1,0.5]];portConstraint=eastwest;rotatable=0;whiteSpace=wrap;html=1;" parent="fixqP4ct7N5aV7qAm0VZ-23" vertex="1">
          <mxGeometry y="60" width="190" height="30" as="geometry" />
        </mxCell>
        <mxCell id="fixqP4ct7N5aV7qAm0VZ-27" value="commission_banner" style="swimlane;fontStyle=0;childLayout=stackLayout;horizontal=1;startSize=30;horizontalStack=0;resizeParent=1;resizeParentMax=0;resizeLast=0;collapsible=1;marginBottom=0;whiteSpace=wrap;html=1;" parent="1" vertex="1">
          <mxGeometry x="580" y="190" width="190" height="90" as="geometry" />
        </mxCell>
        <mxCell id="fixqP4ct7N5aV7qAm0VZ-28" value="show_banner (true or false)" style="text;strokeColor=none;fillColor=none;align=left;verticalAlign=middle;spacingLeft=4;spacingRight=4;overflow=hidden;points=[[0,0.5],[1,0.5]];portConstraint=eastwest;rotatable=0;whiteSpace=wrap;html=1;" parent="fixqP4ct7N5aV7qAm0VZ-27" vertex="1">
          <mxGeometry y="30" width="190" height="30" as="geometry" />
        </mxCell>
        <mxCell id="fixqP4ct7N5aV7qAm0VZ-29" value="banner_info" style="text;strokeColor=none;fillColor=none;align=left;verticalAlign=middle;spacingLeft=4;spacingRight=4;overflow=hidden;points=[[0,0.5],[1,0.5]];portConstraint=eastwest;rotatable=0;whiteSpace=wrap;html=1;" parent="fixqP4ct7N5aV7qAm0VZ-27" vertex="1">
          <mxGeometry y="60" width="190" height="30" as="geometry" />
        </mxCell>
        <mxCell id="fixqP4ct7N5aV7qAm0VZ-33" style="edgeStyle=orthogonalEdgeStyle;rounded=0;orthogonalLoop=1;jettySize=auto;html=1;exitX=0.5;exitY=1;exitDx=0;exitDy=0;entryX=1;entryY=1;entryDx=0;entryDy=0;entryPerimeter=0;" parent="1" source="fixqP4ct7N5aV7qAm0VZ-4" target="fixqP4ct7N5aV7qAm0VZ-1" edge="1">
          <mxGeometry relative="1" as="geometry" />
        </mxCell>
        <mxCell id="fixqP4ct7N5aV7qAm0VZ-34" value="return response" style="text;html=1;align=center;verticalAlign=middle;resizable=0;points=[];autosize=1;strokeColor=none;fillColor=none;" parent="1" vertex="1">
          <mxGeometry x="360" y="390" width="110" height="30" as="geometry" />
        </mxCell>
        <mxCell id="fixqP4ct7N5aV7qAm0VZ-42" style="edgeStyle=orthogonalEdgeStyle;rounded=0;orthogonalLoop=1;jettySize=auto;html=1;exitX=1;exitY=0.5;exitDx=0;exitDy=0;exitPerimeter=0;" parent="1" source="fixqP4ct7N5aV7qAm0VZ-35" target="fixqP4ct7N5aV7qAm0VZ-41" edge="1">
          <mxGeometry relative="1" as="geometry" />
        </mxCell>
        <mxCell id="fixqP4ct7N5aV7qAm0VZ-35" value="" style="verticalLabelPosition=bottom;html=1;verticalAlign=top;align=center;strokeColor=none;fillColor=#00BEF2;shape=mxgraph.azure.mobile;pointerEvents=1;" parent="1" vertex="1">
          <mxGeometry x="590" y="600" width="35" height="50" as="geometry" />
        </mxCell>
        <mxCell id="fixqP4ct7N5aV7qAm0VZ-36" value="response" style="swimlane;fontStyle=0;childLayout=stackLayout;horizontal=1;startSize=30;horizontalStack=0;resizeParent=1;resizeParentMax=0;resizeLast=0;collapsible=1;marginBottom=0;whiteSpace=wrap;html=1;" parent="1" vertex="1">
          <mxGeometry x="220" y="580" width="190" height="90" as="geometry" />
        </mxCell>
        <mxCell id="fixqP4ct7N5aV7qAm0VZ-37" value="commission_info (old)" style="text;strokeColor=none;fillColor=none;align=left;verticalAlign=middle;spacingLeft=4;spacingRight=4;overflow=hidden;points=[[0,0.5],[1,0.5]];portConstraint=eastwest;rotatable=0;whiteSpace=wrap;html=1;" parent="fixqP4ct7N5aV7qAm0VZ-36" vertex="1">
          <mxGeometry y="30" width="190" height="30" as="geometry" />
        </mxCell>
        <mxCell id="fixqP4ct7N5aV7qAm0VZ-38" value="commission_banner (new)" style="text;strokeColor=none;fillColor=none;align=left;verticalAlign=middle;spacingLeft=4;spacingRight=4;overflow=hidden;points=[[0,0.5],[1,0.5]];portConstraint=eastwest;rotatable=0;whiteSpace=wrap;html=1;" parent="fixqP4ct7N5aV7qAm0VZ-36" vertex="1">
          <mxGeometry y="60" width="190" height="30" as="geometry" />
        </mxCell>
        <mxCell id="fixqP4ct7N5aV7qAm0VZ-39" style="edgeStyle=orthogonalEdgeStyle;rounded=0;orthogonalLoop=1;jettySize=auto;html=1;exitX=1;exitY=0.5;exitDx=0;exitDy=0;entryX=0;entryY=0.5;entryDx=0;entryDy=0;entryPerimeter=0;" parent="1" source="fixqP4ct7N5aV7qAm0VZ-37" target="fixqP4ct7N5aV7qAm0VZ-35" edge="1">
          <mxGeometry relative="1" as="geometry" />
        </mxCell>
        <mxCell id="fixqP4ct7N5aV7qAm0VZ-40" value="RN receive response&amp;nbsp;&lt;br&gt;from noti-sharing service" style="text;html=1;align=center;verticalAlign=middle;resizable=0;points=[];autosize=1;strokeColor=none;fillColor=none;" parent="1" vertex="1">
          <mxGeometry x="430" y="630" width="150" height="40" as="geometry" />
        </mxCell>
        <mxCell id="fixqP4ct7N5aV7qAm0VZ-46" style="edgeStyle=orthogonalEdgeStyle;rounded=0;orthogonalLoop=1;jettySize=auto;html=1;exitX=1;exitY=0.5;exitDx=0;exitDy=0;entryX=0;entryY=0.5;entryDx=0;entryDy=0;" parent="1" source="fixqP4ct7N5aV7qAm0VZ-41" target="fixqP4ct7N5aV7qAm0VZ-45" edge="1">
          <mxGeometry relative="1" as="geometry" />
        </mxCell>
        <mxCell id="fixqP4ct7N5aV7qAm0VZ-49" style="edgeStyle=orthogonalEdgeStyle;rounded=0;orthogonalLoop=1;jettySize=auto;html=1;exitX=0.5;exitY=1;exitDx=0;exitDy=0;" parent="1" source="fixqP4ct7N5aV7qAm0VZ-41" edge="1">
          <mxGeometry relative="1" as="geometry">
            <mxPoint x="845" y="769" as="targetPoint" />
          </mxGeometry>
        </mxCell>
        <mxCell id="fixqP4ct7N5aV7qAm0VZ-41" value="check commission_banner.&lt;br&gt;show_banner is true or false" style="rhombus;whiteSpace=wrap;html=1;fillColor=#f8cecc;strokeColor=#b85450;" parent="1" vertex="1">
          <mxGeometry x="730" y="573.75" width="230" height="102.5" as="geometry" />
        </mxCell>
        <mxCell id="fixqP4ct7N5aV7qAm0VZ-45" value="display commission_banner in sharing panel" style="ellipse;whiteSpace=wrap;html=1;fillColor=#d5e8d4;strokeColor=#82b366;" parent="1" vertex="1">
          <mxGeometry x="1070" y="585" width="120" height="80" as="geometry" />
        </mxCell>
        <mxCell id="fixqP4ct7N5aV7qAm0VZ-47" value="true" style="text;html=1;align=center;verticalAlign=middle;resizable=0;points=[];autosize=1;strokeColor=none;fillColor=none;" parent="1" vertex="1">
          <mxGeometry x="960" y="600" width="40" height="30" as="geometry" />
        </mxCell>
        <mxCell id="fixqP4ct7N5aV7qAm0VZ-50" value="false" style="text;html=1;align=center;verticalAlign=middle;resizable=0;points=[];autosize=1;strokeColor=none;fillColor=none;" parent="1" vertex="1">
          <mxGeometry x="835" y="668" width="50" height="30" as="geometry" />
        </mxCell>
        <mxCell id="fixqP4ct7N5aV7qAm0VZ-57" style="edgeStyle=orthogonalEdgeStyle;rounded=0;orthogonalLoop=1;jettySize=auto;html=1;exitX=1;exitY=0.5;exitDx=0;exitDy=0;" parent="1" source="fixqP4ct7N5aV7qAm0VZ-55" target="fixqP4ct7N5aV7qAm0VZ-56" edge="1">
          <mxGeometry relative="1" as="geometry" />
        </mxCell>
        <mxCell id="fixqP4ct7N5aV7qAm0VZ-60" style="edgeStyle=orthogonalEdgeStyle;rounded=0;orthogonalLoop=1;jettySize=auto;html=1;exitX=0.5;exitY=1;exitDx=0;exitDy=0;entryX=0.5;entryY=0;entryDx=0;entryDy=0;" parent="1" source="fixqP4ct7N5aV7qAm0VZ-55" target="fixqP4ct7N5aV7qAm0VZ-59" edge="1">
          <mxGeometry relative="1" as="geometry" />
        </mxCell>
        <mxCell id="fixqP4ct7N5aV7qAm0VZ-55" value="check commission_info is &lt;br&gt;empty or not" style="rhombus;whiteSpace=wrap;html=1;fillColor=#f8cecc;strokeColor=#b85450;" parent="1" vertex="1">
          <mxGeometry x="730" y="770" width="230" height="102.5" as="geometry" />
        </mxCell>
        <mxCell id="fixqP4ct7N5aV7qAm0VZ-56" value="display commission_info in sharing panel" style="ellipse;whiteSpace=wrap;html=1;fillColor=#d5e8d4;strokeColor=#82b366;" parent="1" vertex="1">
          <mxGeometry x="1080" y="781.25" width="120" height="78.75" as="geometry" />
        </mxCell>
        <mxCell id="fixqP4ct7N5aV7qAm0VZ-58" value="no" style="text;html=1;align=center;verticalAlign=middle;resizable=0;points=[];autosize=1;strokeColor=none;fillColor=none;" parent="1" vertex="1">
          <mxGeometry x="950" y="788" width="40" height="30" as="geometry" />
        </mxCell>
        <mxCell id="fixqP4ct7N5aV7qAm0VZ-59" value="display RN default page in sharing panel" style="ellipse;whiteSpace=wrap;html=1;fillColor=#d5e8d4;strokeColor=#82b366;" parent="1" vertex="1">
          <mxGeometry x="785" y="960" width="120" height="78.75" as="geometry" />
        </mxCell>
        <mxCell id="fixqP4ct7N5aV7qAm0VZ-61" value="yes" style="text;html=1;align=center;verticalAlign=middle;resizable=0;points=[];autosize=1;strokeColor=none;fillColor=none;" parent="1" vertex="1">
          <mxGeometry x="840" y="868" width="40" height="30" as="geometry" />
        </mxCell>
        <mxCell id="fixqP4ct7N5aV7qAm0VZ-66" value="if call get_product_offer api failed or timeout, return default commission_info to RN&lt;br&gt;&lt;br&gt;if call get_affiliate_sharing_info api failed or timeout, set show_banner as false, and set commission_info as default value, and return to RN." style="shape=document;whiteSpace=wrap;html=1;boundedLbl=1;fillColor=#ffe6cc;strokeColor=#d79b00;" parent="1" vertex="1">
          <mxGeometry x="420" y="430" width="280" height="155" as="geometry" />
        </mxCell>
        <mxCell id="PUc9VMbf_mmfQBEJbArt-1" style="edgeStyle=orthogonalEdgeStyle;rounded=0;orthogonalLoop=1;jettySize=auto;html=1;exitX=0.5;exitY=0.5;exitDx=0;exitDy=0;exitPerimeter=0;entryX=0;entryY=0.5;entryDx=0;entryDy=0;" edge="1" parent="1" source="PUc9VMbf_mmfQBEJbArt-2" target="PUc9VMbf_mmfQBEJbArt-4">
          <mxGeometry relative="1" as="geometry" />
        </mxCell>
        <mxCell id="PUc9VMbf_mmfQBEJbArt-2" value="Actor" style="shape=umlActor;verticalLabelPosition=bottom;verticalAlign=top;html=1;outlineConnect=0;" vertex="1" parent="1">
          <mxGeometry x="290" y="1130" width="30" height="60" as="geometry" />
        </mxCell>
        <mxCell id="PUc9VMbf_mmfQBEJbArt-3" style="edgeStyle=orthogonalEdgeStyle;rounded=0;orthogonalLoop=1;jettySize=auto;html=1;exitX=1;exitY=0.5;exitDx=0;exitDy=0;entryX=0;entryY=0.5;entryDx=0;entryDy=0;" edge="1" parent="1" source="PUc9VMbf_mmfQBEJbArt-4" target="PUc9VMbf_mmfQBEJbArt-20">
          <mxGeometry relative="1" as="geometry">
            <mxPoint x="650" y="1160" as="targetPoint" />
          </mxGeometry>
        </mxCell>
        <mxCell id="PUc9VMbf_mmfQBEJbArt-4" value="noti-sharing service" style="rounded=1;whiteSpace=wrap;html=1;fillColor=#dae8fc;strokeColor=#6c8ebf;" vertex="1" parent="1">
          <mxGeometry x="440" y="1130" width="120" height="60" as="geometry" />
        </mxCell>
        <mxCell id="PUc9VMbf_mmfQBEJbArt-5" value="user_id, item_id,&lt;br&gt;&amp;nbsp;language, region" style="text;html=1;align=center;verticalAlign=middle;resizable=0;points=[];autosize=1;strokeColor=none;fillColor=none;" vertex="1" parent="1">
          <mxGeometry x="320" y="1123" width="120" height="40" as="geometry" />
        </mxCell>
        <mxCell id="PUc9VMbf_mmfQBEJbArt-9" value="affiliate service" style="rounded=1;whiteSpace=wrap;html=1;fillColor=#dae8fc;strokeColor=#6c8ebf;" vertex="1" parent="1">
          <mxGeometry x="910" y="1130" width="120" height="60" as="geometry" />
        </mxCell>
        <mxCell id="PUc9VMbf_mmfQBEJbArt-12" value="call get_product_offer api&lt;br&gt;to get commission_info" style="text;html=1;align=center;verticalAlign=middle;resizable=0;points=[];autosize=1;strokeColor=none;fillColor=none;" vertex="1" parent="1">
          <mxGeometry x="770" y="1080" width="160" height="40" as="geometry" />
        </mxCell>
        <mxCell id="PUc9VMbf_mmfQBEJbArt-13" value="call get_affiliate_sharing_info api&lt;br&gt;to get sharing_banner" style="text;html=1;align=center;verticalAlign=middle;resizable=0;points=[];autosize=1;strokeColor=none;fillColor=none;" vertex="1" parent="1">
          <mxGeometry x="745" y="1240" width="200" height="40" as="geometry" />
        </mxCell>
        <mxCell id="PUc9VMbf_mmfQBEJbArt-21" style="edgeStyle=orthogonalEdgeStyle;rounded=0;orthogonalLoop=1;jettySize=auto;html=1;exitX=0.5;exitY=0;exitDx=0;exitDy=0;entryX=0.5;entryY=0;entryDx=0;entryDy=0;" edge="1" parent="1" source="PUc9VMbf_mmfQBEJbArt-20" target="PUc9VMbf_mmfQBEJbArt-9">
          <mxGeometry relative="1" as="geometry" />
        </mxCell>
        <mxCell id="PUc9VMbf_mmfQBEJbArt-22" style="edgeStyle=orthogonalEdgeStyle;rounded=0;orthogonalLoop=1;jettySize=auto;html=1;exitX=0.5;exitY=1;exitDx=0;exitDy=0;entryX=0.5;entryY=1;entryDx=0;entryDy=0;" edge="1" parent="1" source="PUc9VMbf_mmfQBEJbArt-20" target="PUc9VMbf_mmfQBEJbArt-9">
          <mxGeometry relative="1" as="geometry" />
        </mxCell>
        <mxCell id="PUc9VMbf_mmfQBEJbArt-20" value="region in whitelist and &lt;br&gt;user_id % 100 &amp;lt; greyscale_percentage" style="rhombus;whiteSpace=wrap;html=1;fillColor=#f8cecc;strokeColor=#b85450;" vertex="1" parent="1">
          <mxGeometry x="625" y="1100" width="190" height="120" as="geometry" />
        </mxCell>
        <mxCell id="PUc9VMbf_mmfQBEJbArt-24" value="yes" style="text;html=1;align=center;verticalAlign=middle;resizable=0;points=[];autosize=1;strokeColor=none;fillColor=none;" vertex="1" parent="1">
          <mxGeometry x="720" y="1208" width="40" height="30" as="geometry" />
        </mxCell>
        <mxCell id="PUc9VMbf_mmfQBEJbArt-25" value="no" style="text;html=1;align=center;verticalAlign=middle;resizable=0;points=[];autosize=1;strokeColor=none;fillColor=none;" vertex="1" parent="1">
          <mxGeometry x="710" y="1078" width="40" height="30" as="geometry" />
        </mxCell>
      </root>
    </mxGraphModel>
  </diagram>
</mxfile>
